# Blender v2.79 (sub 0) OBJ File: '1 blend.blend'
# www.blender.org
mtllib TO14R.mtl
o Cylinder
v 4.425287 7.318895 -5.379022
v 5.150290 5.842679 7.729099
v 4.660691 6.479137 -5.486614
v 5.385693 5.002921 7.621507
v 4.726856 5.608890 -5.588280
v 5.451858 4.132673 7.519841
v 4.621239 4.741594 -5.680111
v 5.346241 3.265378 7.428010
v 4.347899 3.910582 -5.758580
v 5.072901 2.434366 7.349541
v 3.917341 3.147787 -5.820671
v 4.642343 1.671571 7.287450
v 3.346110 2.482524 -5.863998
v 4.071113 1.006308 7.244123
v 2.656159 1.940359 -5.886895
v 3.381161 0.464142 7.221226
v 1.874003 1.542125 -5.888483
v 2.599005 0.065908 7.219638
v 1.029698 1.303128 -5.868700
v 1.754700 -0.173089 7.239421
v 0.155691 1.232551 -5.828308
v 0.880694 -0.243665 7.279813
v -0.714430 1.333108 -5.768857
v 0.010572 -0.143108 7.339264
v -1.547228 1.600934 -5.692634
v -0.822225 0.124717 7.415487
v -2.310697 2.025735 -5.602566
v -1.585695 0.549519 7.505555
v -2.975499 2.591189 -5.502116
v -2.250497 1.114972 7.606005
v -3.516085 3.275563 -5.395143
v -2.791082 1.799347 7.712978
v -3.911681 4.052560 -5.285758
v -3.186679 2.576343 7.822362
v -4.147084 4.892318 -5.178166
v -3.422082 3.416101 7.929955
v -4.213248 5.762566 -5.076501
v -3.488246 4.286350 8.031620
v -4.107631 6.629861 -4.984669
v -3.382629 5.153645 8.123451
v -3.834291 7.460874 -4.906200
v -3.109289 5.984657 8.201921
v -3.403733 8.223669 -4.844109
v -2.678730 6.747453 8.264011
v -2.832501 8.888931 -4.800783
v -2.107498 7.412715 8.307338
v -2.142549 9.431097 -4.777885
v -1.417547 7.954881 8.330235
v -1.360392 9.829330 -4.776298
v -0.635389 8.353113 8.331822
v -0.516086 10.068327 -4.796081
v 0.208916 8.592110 8.312040
v 0.357921 10.138903 -4.836473
v 1.082923 8.662685 8.271647
v 1.228042 10.038344 -4.895924
v 1.953045 8.562128 8.212197
v 2.060839 9.770517 -4.972147
v 2.785841 8.294302 8.135973
v 2.824308 9.345715 -5.062215
v 3.549310 7.869499 8.045905
v 3.489109 8.780260 -5.162665
v 4.214112 7.304044 7.945456
v 4.029695 8.095884 -5.269639
v 4.754697 6.619668 7.838482
v 0.909082 1.906188 7.520355
v 0.184080 3.382404 -5.587765
v 3.637635 5.083898 7.727312
v 2.912632 6.560114 -5.380810
v 3.427624 5.496383 7.785381
v 2.702621 6.972600 -5.322742
v 3.140640 5.859702 7.842170
v 2.415638 7.335918 -5.265952
v -0.215351 5.917393 8.034283
v -0.940353 7.393609 -5.073837
v -0.518604 5.564221 8.011282
v -1.243606 7.040437 -5.096838
v 0.150928 6.205215 8.046438
v -0.574074 7.681432 -5.061682
v -0.747177 5.159271 7.978319
v -1.472180 6.635488 -5.129801
v -0.913231 3.795687 7.833939
v -1.638234 5.271903 -5.274181
v -0.788262 3.349879 7.776821
v -1.513264 4.826096 -5.331299
v -0.948357 4.257680 7.887911
v -1.673359 5.733897 -5.220209
v 2.698447 2.228562 7.457694
v 1.973445 3.704778 -5.650428
v 3.741661 3.715671 7.567471
v 3.016658 5.191888 -5.540652
v 2.283219 2.017149 7.456851
v 1.558217 3.493366 -5.651271
v 3.064725 2.516385 7.469850
v 2.339723 3.992602 -5.638272
v -0.578249 2.937391 7.718751
v -1.303252 4.413607 -5.389369
v 2.382406 6.385406 7.943312
v 1.657403 7.861622 -5.164811
v 2.787713 6.159888 7.895497
v 2.062711 7.636105 -5.212626
v 1.940294 6.527588 7.983777
v 1.215292 8.003805 -5.124345
v 1.834998 1.890271 7.467353
v 1.109996 3.366488 -5.640769
v 0.061663 2.273887 7.608635
v -0.663340 3.750103 -5.499485
v 0.466970 2.048370 7.560821
v -0.258032 3.524586 -5.547299
v 1.371009 1.852804 7.488797
v 0.646006 3.329021 -5.619326
v 0.566157 6.416628 8.047281
v -0.158846 7.892844 -5.060839
v -0.892287 4.718107 7.936662
v -1.617289 6.194323 -5.171458
v 1.014378 6.543505 8.036778
v 0.289376 8.019722 -5.071341
v 3.596551 3.274507 7.525813
v 2.871548 4.750723 -5.582309
v -0.291265 2.574072 7.661962
v -1.016267 4.050289 -5.446158
v 3.367978 2.869557 7.492851
v 2.642976 4.345774 -5.615272
v 1.478368 6.580972 8.015338
v 0.753365 8.057188 -5.092784
v 3.797730 4.176097 7.616222
v 3.072727 5.652314 -5.491900
v 3.762605 4.638091 7.670194
v 3.037602 6.114307 -5.437929
vn 0.9619 0.2725 -0.0225
vn 0.9956 0.0811 -0.0459
vn 0.9912 -0.1136 -0.0676
vn 0.9488 -0.3039 -0.0867
vn 0.8698 -0.4826 -0.1025
vn 0.7574 -0.6429 -0.1143
vn 0.6158 -0.7785 -0.1217
vn 0.4504 -0.8841 -0.1245
vn 0.2677 -0.9557 -0.1224
vn 0.0746 -0.9905 -0.1157
vn -0.1212 -0.9871 -0.1045
vn -0.3123 -0.9458 -0.0892
vn -0.4913 -0.8681 -0.0706
vn -0.6514 -0.7571 -0.0492
vn -0.7864 -0.6171 -0.0260
vn -0.8912 -0.4535 -0.0018
vn -0.9619 -0.2725 0.0225
vn -0.9956 -0.0811 0.0459
vn -0.9912 0.1136 0.0676
vn -0.9488 0.3039 0.0867
vn -0.8698 0.4826 0.1025
vn -0.7574 0.6429 0.1143
vn -0.6158 0.7785 0.1217
vn -0.4504 0.8841 0.1245
vn -0.2677 0.9557 0.1224
vn -0.0746 0.9905 0.1157
vn 0.1212 0.9871 0.1045
vn 0.3123 0.9458 0.0892
vn 0.4913 0.8681 0.0706
vn 0.6514 0.7571 0.0492
vn 0.0549 -0.1117 0.9922
vn 0.7864 0.6171 0.0260
vn 0.8912 0.4535 0.0018
vn -0.0549 0.1117 -0.9922
usemtl None
s off
f 1//1 2//1 4//1 3//1
f 3//2 4//2 6//2 5//2
f 5//3 6//3 8//3 7//3
f 7//4 8//4 10//4 9//4
f 9//5 10//5 12//5 11//5
f 11//6 12//6 14//6 13//6
f 13//7 14//7 16//7 15//7
f 15//8 16//8 18//8 17//8
f 17//9 18//9 20//9 19//9
f 19//10 20//10 22//10 21//10
f 21//11 22//11 24//11 23//11
f 23//12 24//12 26//12 25//12
f 25//13 26//13 28//13 27//13
f 27//14 28//14 30//14 29//14
f 29//15 30//15 32//15 31//15
f 31//16 32//16 34//16 33//16
f 33//17 34//17 36//17 35//17
f 35//18 36//18 38//18 37//18
f 37//19 38//19 40//19 39//19
f 39//20 40//20 42//20 41//20
f 41//21 42//21 44//21 43//21
f 43//22 44//22 46//22 45//22
f 45//23 46//23 48//23 47//23
f 47//24 48//24 50//24 49//24
f 49//25 50//25 52//25 51//25
f 51//26 52//26 54//26 53//26
f 53//27 54//27 56//27 55//27
f 55//28 56//28 58//28 57//28
f 57//29 58//29 60//29 59//29
f 59//30 60//30 62//30 61//30
f 4//31 2//31 64//31 62//31 60//31 58//31 56//31 54//31 52//31 111//31 115//31 123//31 101//31 97//31 99//31 71//31 69//31 67//31 127//31 125//31 89//31 117//31 121//31 93//31 87//31 91//31 16//31 14//31 12//31 10//31 8//31 6//31
f 61//32 62//32 64//32 63//32
f 63//33 64//33 2//33 1//33
f 1//34 3//34 5//34 7//34 9//34 11//34 13//34 15//34 92//34 88//34 94//34 122//34 118//34 90//34 126//34 128//34 68//34 70//34 72//34 100//34 98//34 102//34 124//34 116//34 112//34 51//34 53//34 55//34 57//34 59//34 61//34 63//34
f 104//25 103//25 91//25 92//25
f 108//28 107//28 65//28 66//28
f 66//27 65//27 109//27 110//27
f 116//9 115//9 111//9 112//9
f 88//23 87//23 93//23 94//23
f 92//24 91//24 87//24 88//24
f 122//21 121//21 117//21 118//21
f 68//16 67//16 69//16 70//16
f 82//1 81//1 83//1 84//1
f 102//11 101//11 123//11 124//11
f 84//33 83//33 95//33 96//33
f 70//15 69//15 71//15 72//15
f 118//20 117//20 89//20 90//20
f 114//3 113//3 85//3 86//3
f 16//31 91//31 103//31 109//31 65//31 107//31 105//31 119//31 95//31 83//31 81//31 85//31 113//31 79//31 75//31 73//31 77//31 111//31 52//31 50//31 48//31 46//31 44//31 42//31 40//31 38//31 36//31 34//31 32//31 30//31 28//31 26//31 24//31 22//31 20//31 18//31
f 90//19 89//19 125//19 126//19
f 106//29 105//29 107//29 108//29
f 100//13 99//13 97//13 98//13
f 124//10 123//10 115//10 116//10
f 120//30 119//30 105//30 106//30
f 80//4 79//4 113//4 114//4
f 74//6 73//6 75//6 76//6
f 128//17 127//17 67//17 68//17
f 94//22 93//22 121//22 122//22
f 112//8 111//8 77//8 78//8
f 110//26 109//26 103//26 104//26
f 86//2 85//2 81//2 82//2
f 72//14 71//14 99//14 100//14
f 126//18 125//18 127//18 128//18
f 96//32 95//32 119//32 120//32
f 78//7 77//7 73//7 74//7
f 98//12 97//12 101//12 102//12
f 51//34 112//34 78//34 74//34 76//34 80//34 114//34 86//34 82//34 84//34 96//34 120//34 106//34 108//34 66//34 110//34 104//34 92//34 15//34 17//34 19//34 21//34 23//34 25//34 27//34 29//34 31//34 33//34 35//34 37//34 39//34 41//34 43//34 45//34 47//34 49//34
f 76//5 75//5 79//5 80//5
o Cube_Cube.001
v -4.151736 2.849177 -5.416248
v 3.429799 2.737298 -5.294515
v -4.448369 2.301534 7.226855
v 4.263851 1.780156 7.312539
v 3.379724 -0.109066 -5.294515
v 4.263693 -0.109066 7.579663
v -4.640982 -0.000466 7.413934
v -4.718790 -0.053370 -5.631055
vn 0.0380 0.9976 0.0586
vn -0.9895 0.1445 -0.0056
vn 0.9976 -0.0144 -0.0678
vn -0.0103 0.1082 0.9941
vn 0.0296 0.0342 -0.9990
vn -0.0097 -0.9999 0.0024
usemtl None
s off
f 132//35 130//35 129//35 131//35
f 136//36 135//36 131//36 129//36
f 134//37 133//37 130//37 132//37
f 135//38 134//38 132//38 131//38
f 133//39 136//39 129//39 130//39
f 134//40 135//40 136//40 133//40
